<?xml version="1.0" encoding="utf-8"?>
<!-- Generator: Adobe Illustrator 23.0.5, SVG Export Plug-In . SVG Version: 6.00 Build 0)  -->
<svg version="1.1" id="Урны" xmlns="http://www.w3.org/2000/svg" xmlns:xlink="http://www.w3.org/1999/xlink" x="0px" y="0px"
	 viewBox="0 0 70 70" style="enable-background:new 0 0 70 70;" xml:space="preserve">
<style type="text/css">
	.st0{fill:none;}
	.st1{fill:#FFFFFF;}
</style>
<rect x="-14.5" y="-15" class="st0" width="100" height="100"/>
<g>
	<g id="_x32__Урна">
		<g>
			<polygon points="36,7.9 54.1,7.9 54.1,66.1 36,61.1 			"/>
			<polygon points="68,7.9 68,58.8 55.3,65.9 55.3,7.9 			"/>
		</g>
		<g>
			<ellipse class="st1" cx="45.1" cy="19.3" rx="6.9" ry="8.6"/>
			<path d="M45.1,26.9c-3.4,0-6.2-3.4-6.2-7.6s2.8-7.6,6.2-7.6c3.4,0,6.2,3.4,6.2,7.6S48.5,26.9,45.1,26.9z M45.1,12.4
				c-3,0-5.5,3.1-5.5,6.9s2.5,6.9,5.5,6.9c3,0,5.5-3.1,5.5-6.9S48.1,12.4,45.1,12.4z"/>
		</g>
		<g id="Текст_1_">
			<path class="st1" d="M49.4,33.4h1.3v-0.1l-1.3-1v-0.5l1.4,1.1c0.1-0.5,0.4-0.7,0.8-0.8c0.3-0.1,0.6-0.2,0.8-0.3v0.4
				c-0.2,0.1-0.5,0.2-0.7,0.3c-0.4,0.1-0.7,0.3-0.7,0.8v0.1h1.4v0.4h-3V33.4z"/>
			<path class="st1" d="M49.4,37.2h1.2c0.5,0,0.9,0,1.2,0l0,0c-0.3-0.1-0.6-0.3-1-0.5l-1.5-1v-0.4h3v0.4h-1.3c-0.5,0-0.8,0-1.2,0
				l0,0c0.3,0.1,0.7,0.3,1,0.5l1.5,0.9v0.4h-3V37.2z"/>
			<path class="st1" d="M49.7,40.1V41h-0.3v-2.2h0.3v0.9h2.6v0.4H49.7z"/>
			<path class="st1" d="M52.2,42.1c0.1,0.1,0.1,0.4,0.1,0.8c0,0.8-0.5,1.5-1.5,1.5c-0.9,0-1.5-0.6-1.5-1.5c0-0.4,0.1-0.6,0.1-0.7
				l0.3,0.1c-0.1,0.1-0.1,0.4-0.1,0.6c0,0.7,0.4,1.2,1.2,1.2c0.7,0,1.2-0.4,1.2-1.1c0-0.2,0-0.5-0.1-0.6L52.2,42.1z"/>
			<path class="st1" d="M51.4,47.2l0.9,0.3v0.4l-3-1v-0.5l3-1v0.4l-0.9,0.3V47.2z M51.1,46.2l-0.8,0.3c-0.2,0.1-0.4,0.1-0.5,0.2v0
				c0.2,0,0.4,0.1,0.5,0.1l0.9,0.3V46.2z"/>
			<path class="st1" d="M49.4,49.2h3v0.4h-2.6v1h0.9c0.6,0,1.4,0,1.6,0.4c0.1,0.1,0.1,0.3,0.1,0.5l-0.3,0c0-0.1-0.1-0.2-0.2-0.3
				C51.7,51,51.1,51,50.6,51h-1.2V49.2z"/>
			<path class="st1" d="M49.4,52.7h3v0.4h-2.6v1.4h2.6v0.4h-3V52.7z"/>
		</g>
	</g>
	<g id="Элементы_1_">
		<g>
			<polygon points="3,7.9 21,7.9 21,61 3,56.5 			"/>
			<polygon points="31.8,7.9 31.8,56 22.3,60.8 22.3,7.9 			"/>
		</g>
		<g>
			<ellipse class="st1" cx="12" cy="19.3" rx="6.9" ry="8.6"/>
			<path d="M12,26.9c-3.4,0-6.2-3.4-6.2-7.6s2.8-7.6,6.2-7.6s6.2,3.4,6.2,7.6S15.5,26.9,12,26.9z M12,12.4c-3,0-5.5,3.1-5.5,6.9
				S9,26.2,12,26.2s5.5-3.1,5.5-6.9S15.1,12.4,12,12.4z"/>
		</g>
	</g>
	<g id="Текст">
		<path class="st1" d="M18.4,33.7l0.9,0.3v0.4l-3-1v-0.5l3-1v0.4l-0.9,0.3V33.7z M18.1,32.7L17.2,33c-0.2,0.1-0.4,0.1-0.5,0.2v0
			c0.2,0,0.4,0.1,0.5,0.1l0.9,0.3V32.7z"/>
		<path class="st1" d="M16.3,35h0.3v1.2h2.6v0.4h-3V35z"/>
		<path class="st1" d="M18.4,39.6l0.9,0.3v0.4l-3-1v-0.5l3-1v0.4l-0.9,0.3V39.6z M18.1,38.7l-0.8,0.3c-0.2,0.1-0.4,0.1-0.5,0.2v0
			c0.2,0,0.4,0.1,0.5,0.1l0.9,0.3V38.7z"/>
		<path class="st1" d="M18,42c-0.4,0-0.9,0-1.3,0v0c0.3,0.1,0.7,0.2,1.1,0.4l1.4,0.5v0.3l-1.4,0.5c-0.4,0.1-0.8,0.3-1.1,0.3v0
			c0.4,0,0.9,0,1.3,0.1l1.3,0.1v0.4l-3-0.2v-0.5l1.4-0.5c0.4-0.1,0.7-0.2,1-0.3v0c-0.3-0.1-0.6-0.2-1-0.3l-1.4-0.5v-0.5l3-0.2v0.4
			L18,42z"/>
		<path class="st1" d="M16.3,47.5l1.3-0.6c0.2-0.1,0.3-0.1,0.5-0.2v0c-0.2-0.1-0.3-0.1-0.5-0.2L16.3,46v-0.4l1.5,0.6
			c0.4,0.2,0.8,0.3,1.1,0.6c0.2,0.2,0.4,0.4,0.4,0.7c0,0.1,0,0.2,0,0.2l-0.3,0c0,0,0-0.1,0-0.1c0-0.3-0.3-0.5-0.5-0.6
			c-0.1,0-0.1,0-0.2,0l-2,1V47.5z"/>
		<path class="st1" d="M16.3,49.1h0.3v1.3h0.8c0-0.1,0-0.3,0-0.4c0-0.3,0.1-0.6,0.2-0.8c0.1-0.2,0.4-0.4,0.7-0.4
			c0.3,0,0.5,0.1,0.6,0.2c0.2,0.2,0.3,0.6,0.3,1c0,0.3,0,0.5,0,0.6h-2.9V49.1z M19,50.4c0-0.1,0-0.2,0-0.3c0-0.2-0.1-0.5-0.2-0.6
			c-0.1-0.1-0.2-0.2-0.4-0.2c-0.2,0-0.4,0.1-0.5,0.2c-0.1,0.2-0.1,0.4-0.1,0.6c0,0.1,0,0.2,0,0.3H19z"/>
	</g>
</g>
</svg>
