
<svg version="1.1" id="Слой_1" xmlns="http://www.w3.org/2000/svg" xmlns:xlink="http://www.w3.org/1999/xlink" x="0px" y="0px"
	 viewBox="0 0 100 100" style="enable-background:new 0 0 100 100;" xml:space="preserve">
			<path d="M91.9,76.9C91.9,76.9,91.9,76.8,91.9,76.9C91.9,76.8,91.9,76.8,91.9,76.9c0-0.1,0-0.1,0-0.1c0,0,0,0,0,0
				c0,0,0,0,0-0.1c0,0,0,0,0-0.1c0,0,0,0,0,0c0,0,0,0-0.1-0.1c0,0,0,0,0,0c-0.8-0.7-1.7-1.5-2.6-2.1c-0.2-0.2-0.4-0.3-0.6-0.5
				c-1.4-1.1-2.9-2.1-4.4-3c-0.6-0.3-1.1-0.7-1.7-1c0,0,0,0,0,0c-2.9-1.6-5.9-2.8-9-3.7c-1-0.3-2-0.5-2.9-0.7l0,0
				c-6.3-1.2-11.9-0.8-16.5-0.4c-0.8,0.1-1.5,0.1-2.2,0.2l0,0c-1.8,0.1-3.7,0.2-5.3,0c-3.3-0.5-6-2-8.7-5c-2.1-2.3-3.9-5.2-5.8-8.2
				l-0.4-0.7c-2.1-3.3-4.1-6.4-6.7-9c0,0,0,0,0,0c0,0,0,0-0.1,0c0,0,0,0-0.1,0c0,0,0,0-0.1,0c0,0,0,0-0.1,0c0,0,0,0-0.1,0
				c0,0,0,0-0.1,0c0,0,0,0-0.1,0c0,0,0,0-0.1,0c0,0,0,0-0.1,0c0,0,0,0-0.1,0c0,0,0,0,0,0l-14,3.3l0,0c0,0-0.1,0-0.1,0c0,0,0,0,0,0
				c0,0,0,0,0,0c0,0,0,0,0,0c0,0,0,0-0.1,0c0,0,0,0,0,0c0,0,0,0,0,0c0,0,0,0-0.1,0.1c0,0,0,0,0,0c0,0,0,0,0,0.1c0,0,0,0,0,0
				c0,0,0,0,0,0.1c0,0,0,0,0,0c0,0,0,0.1,0,0.1c0,0,0,0,0,0c0,0,0,0,0,0.1c0,0,0,0,0,0.1c0,0,0,0.1,0,0.1c0,0,0,0,0,0
				c0,0,0,0.1,0,0.1c0,0,0,0,0,0c0,0,0,0.1,0.1,0.1c0,0,0,0,0,0c0,0,0,0.1,0.1,0.1c0,0,0,0,0,0c0,0,0.1,0,0.1,0.1c0,0,0,0,0,0
				c0,0,0,0,0,0c3.4,2.3,6,5.7,7.8,8.4c0.9,1.3,1.8,2.7,2.6,4c1.1,1.7,2.2,3.5,3.3,5.1c2.5,3.6,4.8,5.8,7.4,7.2h0
				c1.5,0.8,3.1,1.3,4.8,1.6c2.2,0.3,4.8,0.1,7.9-0.2c2.7-0.2,5.7-0.5,8.9-0.4c5.6,0.1,10.6,1.2,15.4,3.3c3,1.3,5.9,3,8.7,5.1
				c0,0,0,0,0,0c0,0,0,0,0,0c0,0,0,0,0.1,0c0,0,0,0,0,0c0,0,0,0,0.1,0c0,0,0,0,0,0c0,0,0.1,0,0.1,0c0,0,0,0,0,0c0,0,0.1,0,0.1,0
				c0,0,0.1,0,0.1,0c0,0,0,0,0,0l0,0c0,0,0,0,0,0l14.1-3.3c0,0,0,0,0.1,0c0,0,0,0,0.1,0c0,0,0.1,0,0.1-0.1c0,0,0,0,0,0
				c0,0,0.1-0.1,0.1-0.1c0,0,0,0,0,0c0,0,0,0,0,0c0,0,0,0,0-0.1c0,0,0,0,0-0.1c0,0,0,0,0-0.1c0,0,0,0,0-0.1c0,0,0,0,0-0.1
				c0,0,0,0,0-0.1C91.9,77,91.9,77,91.9,76.9C91.9,76.9,91.9,76.9,91.9,76.9z M17.8,53c-0.1-0.1-0.2-0.3-0.3-0.4
				c-0.1-0.2-0.2-0.3-0.4-0.5c-0.1-0.2-0.2-0.3-0.4-0.5c-0.6-0.8-1.3-1.6-2-2.4c0,0,0,0,0,0c-0.1-0.2-0.3-0.3-0.4-0.5
				c-0.2-0.2-0.3-0.3-0.5-0.5c-0.2-0.2-0.3-0.3-0.5-0.5c-0.5-0.5-1-0.9-1.5-1.3l12.1-2.8c2.1,2.2,3.9,4.9,5.7,7.7l-11.1,2.6
				C18.3,53.6,18,53.3,17.8,53z M22.5,60.2c-0.2-0.3-0.4-0.6-0.6-0.9c-0.2-0.3-0.3-0.5-0.5-0.8c-0.4-0.7-0.9-1.4-1.3-2
				c-0.2-0.3-0.4-0.6-0.6-0.9c-0.1-0.1-0.1-0.2-0.2-0.3l11.1-2.6l0.2,0.3c1.7,2.7,3.3,5.2,5.2,7.5L24.4,63c-0.5-0.7-1-1.5-1.5-2.2
				C22.8,60.6,22.6,60.4,22.5,60.2z M29.9,69c-0.2-0.1-0.4-0.3-0.6-0.4c-0.6-0.5-1.1-1-1.7-1.6c-0.1-0.1-0.1-0.1-0.2-0.2
				c-0.2-0.2-0.4-0.4-0.5-0.6c0,0,0,0,0,0c-0.2-0.2-0.4-0.4-0.6-0.7l-0.2-0.2c-0.1-0.2-0.3-0.3-0.4-0.5c-0.1-0.1-0.1-0.2-0.2-0.3
				c-0.1-0.1-0.1-0.2-0.2-0.3l11.5-2.7c2.8,2.9,5.6,4.5,9,5.1L31.4,70c0,0,0,0,0,0c-0.1-0.1-0.2-0.1-0.4-0.2c0,0,0,0,0,0
				C30.6,69.6,30.2,69.3,29.9,69C29.9,69,29.9,69,29.9,69z M43.5,71.4c-3,0.2-5.5,0.5-7.6,0.2c-0.2,0-0.4-0.1-0.7-0.1
				c-0.1,0-0.2,0-0.3-0.1c-0.5-0.1-1-0.2-1.5-0.4l18.3-4.3c0.7,0,1.4-0.1,2.2-0.2c3.6-0.3,7.8-0.6,12.4-0.2l-20.8,4.9
				C44.9,71.3,44.2,71.4,43.5,71.4z M66.1,73.5c-1.4-0.5-2.9-1-4.4-1.3c-0.5-0.1-1.1-0.2-1.6-0.4c-1.2-0.2-2.5-0.4-3.8-0.6
				c-0.6-0.1-1.1-0.1-1.7-0.1c-0.3,0-0.6,0-0.9,0c-0.3,0-0.6,0-0.9,0l0,0l17.4-4.1c0.9,0.2,1.8,0.4,2.7,0.6c2.4,0.7,4.7,1.5,7,2.7
				L66.1,73.5L66.1,73.5z M77.3,79.5C77.3,79.5,77.3,79.5,77.3,79.5c-0.2-0.1-0.4-0.3-0.5-0.4c-0.2-0.1-0.4-0.3-0.5-0.4
				c-0.2-0.1-0.4-0.2-0.5-0.4c-0.4-0.2-0.7-0.5-1.1-0.7c-0.2-0.1-0.4-0.2-0.5-0.3c-0.2-0.1-0.4-0.3-0.7-0.4
				c-0.1-0.1-0.3-0.2-0.4-0.2c-0.2-0.1-0.4-0.2-0.5-0.3c-0.3-0.2-0.7-0.4-1-0.6c-0.2-0.1-0.4-0.2-0.6-0.3c-0.2-0.1-0.4-0.2-0.6-0.3
				c-0.6-0.3-1.1-0.5-1.7-0.8c0,0,0,0-0.1,0L82,71.2c0.5,0.3,0.9,0.5,1.4,0.8c1.4,0.9,2.8,1.8,4.2,2.9c0.2,0.2,0.4,0.3,0.6,0.5
				c0.5,0.4,1,0.8,1.4,1.2L77.3,79.5z"/>
			<path d="M67.4,77.1c2.6,1.2,5.3,2.7,7.8,4.5c-6.4,1.7-14.3,3.5-22.3,4.3c0,0,0,0-0.1,0c-0.3,0-0.6-0.2-0.7-0.6
				c-0.9-4-4.4-6.7-8.5-6.7c-3.8,0-7.1,2.4-8.3,5.9c-0.1,0.4-0.5,0.6-0.9,0.5c-2.3-0.6-4.3-1.4-6.1-2.4C18.6,77.1,14,67.5,11.8,60.4
				c-1.5-5-2.1-9.5-2.3-12c2.9,2.1,5.2,5.2,6.9,7.6c0.9,1.3,1.7,2.7,2.6,4c1.1,1.7,2.2,3.5,3.4,5.1c2.7,3.7,5.1,6.1,7.9,7.6l0.2,0.1
				h0c1.6,0.8,3.3,1.4,5.1,1.6c0.8,0.1,1.7,0.2,2.7,0.2c1.7,0,3.5-0.2,5.5-0.3c2.3-0.2,4.9-0.4,7.6-0.4c0.4,0,0.7,0,1.1,0
				C57.9,74,62.8,75,67.4,77.1z"/>

			<path d="M52.3,32.5c0,5.9-2.4,11-6,13.1c-0.5,0.3-1,0.5-1.5,0.6c-0.3,0.1-0.6,0.1-0.8,0.2c-0.3,0.1-0.7,0.1-1,0.1h0
				c-0.3,0-0.7,0-1-0.1c-0.3,0-0.6-0.1-0.8-0.2c-0.5-0.2-1-0.4-1.5-0.6c-3.7-2.1-6-7.2-6-13.1c0-7.3,3.7-18.3,9.4-18.4
				C48.6,14.1,52.3,25.2,52.3,32.5z"/>
			<path d="M43,47.9c0.3,0,0.6,0,1-0.1v4.2h-2v-4.2C42.2,47.9,42.6,47.9,43,47.9L43,47.9z"/>

		<path d="M60.5,57.6c0.2,0,0.5,0,0.7,0v2.6h-1.4v-2.6C60,57.6,60.2,57.6,60.5,57.6L60.5,57.6z"/>
		<path d="M67.2,46.2c0,4.2-1.7,7.9-4.3,9.3c-0.3,0.2-0.7,0.3-1.1,0.5c-0.2,0.1-0.4,0.1-0.6,0.1c-0.2,0-0.5,0.1-0.7,0.1
			h0c-0.2,0-0.5,0-0.7-0.1c-0.2,0-0.4-0.1-0.6-0.1c-0.4-0.1-0.7-0.3-1.1-0.5c-2.6-1.5-4.3-5.1-4.3-9.3c0-5.2,2.7-13.1,6.7-13.1
			C64.5,33.1,67.2,41,67.2,46.2z"/>
</svg>
