
<svg version="1.1" id="Слой_1" xmlns="http://www.w3.org/2000/svg" xmlns:xlink="http://www.w3.org/1999/xlink" x="0px" y="0px"
	 viewBox="0 0 100 100" style="enable-background:new 0 0 100 100;" xml:space="preserve">
<style type="text/css">
	.st1{fill:#FFFFFF;}
</style>
<g id="Модульные_системы_2_1_">
	<g id="Элементы_4_">
		<g>
			<g>
				<g>
					<rect x="10.5" y="70.8" width="13" height="3.2"/>
				</g>
				<g>
					<rect x="10.5" y="75.4" width="13" height="5.4"/>
				</g>
				<g>
					<rect x="10.5" y="82.2" width="13" height="3.2"/>
				</g>
			</g>
			<g>
				<path d="M75.6,70.8v14.5h13V70.8H75.6z M80,83.3h-1.4V72.9H80V83.3z M85.6,83.3h-1.4V72.9h1.4V83.3z"/>
			</g>
		</g>
		<g>
			<g>
				<g>
					<rect x="25.8" y="71.6" width="47.5" height="8.5"/>
				</g>
				<g>
					<rect x="29.4" y="81.4" width="3.9" height="3.9"/>
				</g>
				<g>
					<rect x="65.7" y="81.4" width="3.9" height="3.9"/>
				</g>
			</g>
			<g>
				<g>
					<rect x="27.7" y="64.2" width="43.6" height="3.9"/>
				</g>
				<g>
					<rect x="27.7" y="57.8" width="43.6" height="3.9"/>
				</g>
				<g>
					<rect x="32.6" y="58.5" width="1.4" height="8.7"/>
				</g>
				<g>
					<rect x="65.1" y="58.5" width="1.4" height="8.7"/>
				</g>
			</g>
		</g>
		<g>
			<g>
				<path d="M78.3,36.3c-0.5,0-0.9,0.1-1.4,0.2c-1.1-1.3-2.7-2.1-4.5-2.1c-1.8,0-3.4,0.8-4.5,2.1
					c-0.4-0.1-0.9-0.2-1.4-0.2c-2.7,0-4.9,2.2-4.9,4.9h5h4.9h1.9h4.9h5C83.3,38.5,81.1,36.3,78.3,36.3z"/>
			</g>
			<g>
				<path d="M62.8,27.2c-0.5,0-0.9,0.1-1.4,0.2c-1.1-1.3-2.7-2.1-4.5-2.1c-1.8,0-3.4,0.8-4.5,2.1
					c-0.4-0.1-0.9-0.2-1.4-0.2c-2.7,0-4.9,2.2-4.9,4.9h5H56h1.9h4.9h5C67.8,29.4,65.6,27.2,62.8,27.2z"/>
			</g>
		</g>
	</g>
	<g id="Цвет_4_">
		<g>
			<path d="M23.3,68.1L23,65.5l-0.3,2.6h-0.1v-3c0.2,0,0.3-0.2,0.3-0.4c0-0.2-0.2-0.4-0.4-0.4s-0.4,0.2-0.4,0.4
				c0,0.2,0.1,0.3,0.3,0.4V67l-0.1-0.9l-0.3,2h0l-0.3-2.6l-0.3,2.6h-0.1l-0.3-2l-0.3,2h0v-3c0.2,0,0.3-0.2,0.3-0.4
				c0-0.2-0.2-0.4-0.4-0.4c-0.2,0-0.4,0.2-0.4,0.4c0,0.2,0.1,0.3,0.3,0.4v1.3l-0.1-0.9l-0.3,2.6h-0.1l-0.3-2l-0.3,2h0l-0.3-2.6
				l-0.3,2.6h0v-3c0.2,0,0.3-0.2,0.3-0.4c0-0.2-0.2-0.4-0.4-0.4s-0.4,0.2-0.4,0.4c0,0.2,0.1,0.3,0.3,0.4v2.5L18,66.1l-0.3,2h0
				l-0.3-2.6L17,68.1h-0.1l-0.3-2l-0.2,1.6V65c0.2,0,0.3-0.2,0.3-0.4c0-0.2-0.2-0.4-0.4-0.4s-0.4,0.2-0.4,0.4c0,0.2,0.1,0.3,0.3,0.4
				v2.1l-0.2-1.7l-0.3,2.6h-0.1l-0.3-2l-0.3,2h0l-0.3-2.6l-0.3,2.1V65c0.2,0,0.3-0.2,0.3-0.4c0-0.2-0.2-0.4-0.4-0.4
				c-0.2,0-0.4,0.2-0.4,0.4c0,0.2,0.1,0.3,0.3,0.4v3h0l-0.3-2l-0.3,2h0l-0.3-2.6l-0.3,2.6h-0.1l-0.3-2l-0.2,1V65
				c0.2,0,0.3-0.2,0.3-0.4c0-0.2-0.2-0.4-0.4-0.4s-0.4,0.2-0.4,0.4c0,0.2,0.1,0.3,0.3,0.4v3l-0.3-2.6l-0.3,2.6h-0.1l-0.3-2l-0.3,2
				h-0.2v1.4h13v-1.4H23.3z"/>
		</g>
		<g>
			<rect x="75.6" y="68.1" width="13" height="1.4"/>
		</g>
		<g id="Цвет_14_">
			<g>
				<circle cx="26.4" cy="31.3" r="4.2"/>
			</g>
			<g>
				<g>
					<rect x="25.8" y="19.7" width="1.4" height="5"/>
				</g>
				<g>
					
						<rect x="18.7" y="23.1" transform="matrix(0.6235 -0.7818 0.7818 0.6235 -12.7658 24.7742)" width="1.4" height="5"/>
				</g>
				<g>
					
						<rect x="15.7" y="32.6" transform="matrix(0.9679 -0.2513 0.2513 0.9679 -7.8005 5.5608)" width="4.4" height="1.4"/>
				</g>
				<g>
					<rect x="20" y="38.8" transform="matrix(0.4339 -0.901 0.901 0.4339 -22.8446 42.6298)" width="5" height="1.4"/>
				</g>
				<g>
					<rect x="29.7" y="37" transform="matrix(0.901 -0.4339 0.4339 0.901 -14.1264 17.0948)" width="1.4" height="5"/>
				</g>
				<g>
					
						<rect x="34.6" y="30.8" transform="matrix(0.2225 -0.9749 0.9749 0.2225 -5.0471 60.3279)" width="1.4" height="5"/>
				</g>
				<g>
					<rect x="31.1" y="25" transform="matrix(0.7818 -0.6235 0.6235 0.7818 -8.6679 26.5101)" width="5" height="1.4"/>
				</g>
			</g>
		</g>
	</g>
</g>
</svg>
