
<svg version="1.1"  xmlns="http://www.w3.org/2000/svg" xmlns:xlink="http://www.w3.org/1999/xlink" x="0px" y="0px" viewBox="0 0 100 100">
<style type="text/css">
	.st1{fill:#FFFFFF;}
</style>
<g id="_x32__Зима_Арт_-_объекты_2_">
	<g id="Элементы_22_">
		<g>
			<path d="M22.9,52.2c0-2.9-3.3-6.1-9.5-6.1c-6.2,0-9.5,3.1-9.5,6.1v1.2h7.9v-1.1c0-0.1,0.1-0.5,0.3-0.7
				c0.2-0.2,0.3-0.4,1.3-0.4c0.9,0,1.1,0.2,1.2,0.4c0.2,0.3,0.3,0.6,0.3,0.8v7.1c0,0.1-0.1,0.5-0.3,0.7c-0.2,0.2-0.3,0.4-1.3,0.4
				h-1.9v5h1.9c0.9,0,1.1,0.2,1.2,0.4c0.2,0.3,0.3,0.6,0.3,0.8v7.1c0,0.1-0.1,0.5-0.3,0.7c-0.2,0.2-0.3,0.4-1.3,0.4
				c-0.9,0-1.1-0.2-1.2-0.4c-0.2-0.3-0.3-0.7-0.3-0.8l0-1.2l-3.9,0h-4v1.2c0,2.9,3.3,6.1,9.5,6.1c6.2,0,9.5-3.1,9.5-6.1v-7.2
				c0-1.3-0.6-2.6-1.7-3.6c1.1-1,1.7-2.3,1.7-3.6V52.2z"/>
		</g>
		<g>
			<polygon points="63.6,46.2 59.7,53.4 55.9,46.2 48.4,46.2 48.4,79.8 56.3,79.8 56.3,62.9 59.7,69.3 63.1,62.9 
				63.1,79.8 71.1,79.8 71.1,46.2 			"/>
		</g>
		<g>
			<rect x="26.2" y="25.3" width="19" height="1.5"/>
		</g>
	</g>
	<g id="Цвет_красный_6_">
		<g>
			<path d="M94.7,70.1L88.9,29h-7.3l-7.2,50.9h8.1L84.3,67h1.9L88,79.8h8.1L94.7,70.1z M86.8,57.9L86.8,57.9l-3.1,0v0
				l1.6-11L86.8,57.9z"/>
		</g>
		<g>
			<polygon points="38.6,29 34.1,44.7 34.1,29 26.2,29 26.2,79.8 32.8,79.8 37.2,64.1 37.2,79.8 45.1,79.8 45.1,29 			
				"/>
		</g>
		<g>
			<rect x="48.4" y="42.5" width="22.6" height="1.5"/>
		</g>
	</g>
	<g id="Цвет_белый_5_">
		<g>
			<g>
				<g>
					<g>
						<g>
							<path class="st1" d="M15.5,63.6c-0.1,0-0.2-0.1-0.2-0.2c0-0.1,0.1-0.2,0.2-0.2l1.7-0.1c0.1,0,0.2,0.1,0.2,0.2
								c0,0.1-0.1,0.2-0.2,0.2L15.5,63.6C15.5,63.6,15.5,63.6,15.5,63.6z"/>
						</g>
						<g>
							<path class="st1" d="M15.9,64.3c0,0-0.1,0-0.1-0.1c-0.1-0.1-0.1-0.2,0-0.3l0.7-0.8c0.1-0.1,0.2-0.1,0.3,0
								c0.1,0.1,0.1,0.2,0,0.3L16,64.3C16,64.3,15.9,64.3,15.9,64.3z"/>
						</g>
						<g>
							<path class="st1" d="M16.5,63.5c-0.1,0-0.1,0-0.2-0.1l-0.7-0.7c-0.1-0.1-0.1-0.2,0-0.3c0.1-0.1,0.2-0.1,0.3,0l0.7,0.7
								c0.1,0.1,0.1,0.2,0,0.3C16.6,63.5,16.6,63.5,16.5,63.5z"/>
						</g>
					</g>
					<g>
						<g>
							<path class="st1" d="M17.1,65.6C17,65.6,17,65.6,17.1,65.6c-0.2,0-0.2-0.2-0.2-0.3l0.5-1.6c0-0.1,0.2-0.2,0.3-0.1
								c0.1,0,0.2,0.2,0.1,0.3l-0.5,1.6C17.2,65.6,17.1,65.6,17.1,65.6z"/>
						</g>
						<g>
							<path class="st1" d="M17.9,65.5c-0.1,0-0.1,0-0.2-0.1l-0.5-0.9c-0.1-0.1,0-0.2,0.1-0.3c0.1-0.1,0.2,0,0.3,0.1l0.5,0.9
								c0.1,0.1,0,0.2-0.1,0.3C18,65.5,17.9,65.5,17.9,65.5z"/>
						</g>
						<g>
							<path class="st1" d="M16.4,65.1c-0.1,0-0.2,0-0.2-0.1c-0.1-0.1,0-0.2,0.1-0.3l0.9-0.4c0.1-0.1,0.2,0,0.3,0.1
								c0.1,0.1,0,0.2-0.1,0.3L16.4,65.1C16.5,65.1,16.5,65.1,16.4,65.1z"/>
						</g>
					</g>
					<g>
						<g>
							<path class="st1" d="M19.5,64.8c0,0-0.1,0-0.1,0L18,63.8c-0.1-0.1-0.1-0.2-0.1-0.3c0.1-0.1,0.2-0.1,0.3-0.1l1.4,0.9
								c0.1,0.1,0.1,0.2,0.1,0.3C19.7,64.7,19.6,64.8,19.5,64.8z"/>
						</g>
						<g>
							<path class="st1" d="M18.6,64.2c-0.1,0-0.2-0.1-0.2-0.2c0-0.1,0-0.2,0.2-0.3l1-0.2c0.1,0,0.2,0,0.3,0.2c0,0.1,0,0.2-0.2,0.3
								L18.6,64.2C18.7,64.2,18.7,64.2,18.6,64.2z"/>
						</g>
						<g>
							<path class="st1" d="M18.8,65.2c-0.1,0-0.2-0.1-0.2-0.2l-0.1-1c0-0.1,0.1-0.2,0.2-0.2c0.1,0,0.2,0.1,0.2,0.2l0.1,1
								C19,65.1,18.9,65.2,18.8,65.2C18.8,65.2,18.8,65.2,18.8,65.2z"/>
						</g>
					</g>
					<g>
						<g>
							<path class="st1" d="M18.1,63.2c-0.1,0-0.1,0-0.2-0.1c-0.1-0.1-0.1-0.2,0-0.3l1.3-1c0.1-0.1,0.2-0.1,0.3,0
								c0.1,0.1,0.1,0.2,0,0.3l-1.3,1C18.2,63.2,18.2,63.2,18.1,63.2z"/>
						</g>
						<g>
							<path class="st1" d="M18.6,62.8C18.6,62.8,18.6,62.8,18.6,62.8c-0.1,0-0.2-0.1-0.2-0.2l0.1-1c0-0.1,0.1-0.2,0.2-0.2
								c0.1,0,0.2,0.1,0.2,0.2l-0.1,1C18.8,62.7,18.7,62.8,18.6,62.8z"/>
						</g>
						<g>
							<path class="st1" d="M19.6,63C19.6,63,19.6,63,19.6,63l-1.1-0.2c-0.1,0-0.2-0.1-0.2-0.3c0-0.1,0.1-0.2,0.3-0.2l1,0.2
								c0.1,0,0.2,0.1,0.2,0.3C19.8,62.9,19.7,63,19.6,63z"/>
						</g>
					</g>
					<g>
						<g>
							<path class="st1" d="M17.5,63c-0.1,0-0.2-0.1-0.2-0.1l-0.6-1.6c0-0.1,0-0.2,0.1-0.3c0.1,0,0.2,0,0.3,0.1l0.6,1.6
								C17.7,62.8,17.7,62.9,17.5,63C17.5,63,17.5,63,17.5,63z"/>
						</g>
						<g>
							<path class="st1" d="M17.3,62.4C17.3,62.4,17.2,62.4,17.3,62.4l-1-0.4c-0.1,0-0.2-0.2-0.1-0.3c0-0.1,0.2-0.2,0.3-0.1l1,0.4
								c0.1,0,0.2,0.2,0.1,0.3C17.5,62.4,17.4,62.4,17.3,62.4z"/>
						</g>
						<g>
							<path class="st1" d="M17.3,62.4c0,0-0.1,0-0.1,0c-0.1-0.1-0.1-0.2-0.1-0.3l0.5-0.9c0.1-0.1,0.2-0.1,0.3-0.1
								c0.1,0.1,0.1,0.2,0.1,0.3l-0.5,0.9C17.4,62.4,17.4,62.4,17.3,62.4z"/>
						</g>
					</g>
				</g>
				<g>
					<g>
						<path class="st1" d="M17.7,64c-0.2,0-0.4-0.1-0.5-0.2c-0.1-0.1-0.2-0.3-0.2-0.5c0-0.2,0.1-0.4,0.2-0.5
							c0.1-0.1,0.3-0.2,0.5-0.2c0,0,0,0,0,0c0.4,0,0.7,0.3,0.8,0.7c0,0.2-0.1,0.4-0.2,0.5C18.1,64,17.9,64,17.7,64
							C17.7,64,17.7,64,17.7,64z M17.7,63C17.7,63,17.7,63,17.7,63L17.7,63c-0.1,0-0.2,0-0.2,0.1c-0.1,0.1-0.1,0.1-0.1,0.2
							c0,0.1,0,0.2,0.1,0.2c0.1,0.1,0.1,0.1,0.2,0.1c0.1,0,0.2,0,0.2-0.1c0.1-0.1,0.1-0.1,0.1-0.2C18,63.1,17.9,63,17.7,63z"/>
					</g>
					<g>
						<path class="st1" d="M15.1,64c-0.3,0-0.6-0.3-0.6-0.6c0-0.3,0.3-0.6,0.6-0.6c0.3,0,0.6,0.3,0.6,0.6C15.7,63.7,15.4,64,15.1,64
							C15.1,64,15.1,64,15.1,64z M15.1,63.2C15.1,63.2,15.1,63.2,15.1,63.2c-0.1,0-0.2,0.1-0.2,0.2c0,0.1,0.1,0.2,0.2,0.2
							c0.1,0,0.2-0.1,0.2-0.2C15.2,63.3,15.2,63.2,15.1,63.2z"/>
					</g>
					<g>
						<path class="st1" d="M16.9,66.4c-0.1,0-0.1,0-0.2,0c-0.2,0-0.3-0.1-0.4-0.3c-0.1-0.1-0.1-0.3,0-0.5l0,0
							c0.1-0.3,0.4-0.5,0.8-0.4c0.2,0,0.3,0.1,0.4,0.3c0.1,0.1,0.1,0.3,0,0.5C17.5,66.2,17.2,66.4,16.9,66.4z M16.8,65.8
							c0,0,0,0.1,0,0.1c0,0,0.1,0.1,0.1,0.1c0.1,0,0.2,0,0.2-0.1c0,0,0-0.1,0-0.1c0,0-0.1-0.1-0.1-0.1
							C16.9,65.6,16.8,65.7,16.8,65.8L16.8,65.8z"/>
					</g>
					<g>
						<path class="st1" d="M19.8,65.4c-0.1,0-0.2,0-0.3-0.1l0,0c-0.1-0.1-0.2-0.2-0.3-0.4c0-0.2,0-0.3,0.1-0.5
							c0.2-0.3,0.6-0.3,0.8-0.2c0.1,0.1,0.2,0.2,0.3,0.4c0,0.2,0,0.3-0.1,0.5C20.2,65.3,20,65.4,19.8,65.4z M19.8,64.6
							c-0.1,0-0.1,0-0.1,0.1c0,0,0,0.1,0,0.1c0,0,0,0.1,0.1,0.1v0c0.1,0.1,0.2,0,0.2,0c0,0,0-0.1,0-0.1C20,64.7,20,64.6,19.8,64.6
							C19.9,64.6,19.9,64.6,19.8,64.6z"/>
					</g>
					<g>
						<path class="st1" d="M19.8,62.3c-0.2,0-0.4-0.1-0.5-0.2c-0.1-0.1-0.1-0.3-0.1-0.4c0-0.2,0.1-0.3,0.2-0.4
							c0.3-0.2,0.6-0.2,0.9,0.1c0.1,0.1,0.1,0.3,0.1,0.4c0,0.2-0.1,0.3-0.2,0.4C20,62.3,19.9,62.3,19.8,62.3z M19.8,61.5
							c0,0-0.1,0-0.1,0c0,0-0.1,0.1-0.1,0.1c0,0,0,0.1,0,0.1c0.1,0.1,0.2,0.1,0.2,0c0,0,0.1-0.1,0.1-0.1c0,0,0-0.1,0-0.1
							C19.9,61.5,19.8,61.5,19.8,61.5z"/>
					</g>
					<g>
						<path class="st1" d="M16.8,61.4c-0.2,0-0.5-0.2-0.6-0.4c-0.1-0.2,0-0.3,0-0.5c0.1-0.1,0.2-0.3,0.3-0.3
							c0.3-0.1,0.7,0.1,0.8,0.4c0.1,0.2,0,0.3,0,0.5c-0.1,0.1-0.2,0.3-0.3,0.3C16.9,61.4,16.9,61.4,16.8,61.4z M16.8,60.7
							C16.8,60.7,16.8,60.7,16.8,60.7c-0.1,0-0.1,0.1-0.2,0.1c0,0,0,0.1,0,0.1c0,0.1,0.1,0.1,0.2,0.1c0,0,0.1,0,0.1-0.1
							c0,0,0-0.1,0-0.1C16.9,60.7,16.9,60.7,16.8,60.7z"/>
					</g>
				</g>
			</g>
			<g>
				<g>
					<g>
						<g>
							<path class="st1" d="M19.3,68.7c-0.1,0-0.1,0-0.1-0.1l-0.1-1.1c0-0.1,0-0.1,0.1-0.1c0.1,0,0.1,0,0.1,0.1l0.1,1.1
								C19.4,68.6,19.3,68.7,19.3,68.7C19.3,68.7,19.3,68.7,19.3,68.7z"/>
						</g>
						<g>
							<path class="st1" d="M19.3,68.3C19.2,68.3,19.2,68.3,19.3,68.3l-0.6-0.4c0,0-0.1-0.1,0-0.2c0,0,0.1-0.1,0.2,0l0.5,0.4
								C19.4,68.1,19.4,68.2,19.3,68.3C19.3,68.3,19.3,68.3,19.3,68.3z"/>
						</g>
						<g>
							<path class="st1" d="M19.3,68.3C19.2,68.3,19.2,68.3,19.3,68.3c-0.1-0.1-0.1-0.1-0.1-0.2l0.5-0.5c0,0,0.1,0,0.2,0
								c0,0,0,0.1,0,0.2L19.3,68.3C19.3,68.3,19.3,68.3,19.3,68.3z"/>
						</g>
					</g>
					<g>
						<g>
							<path class="st1" d="M19,68.9C19,68.9,18.9,68.9,19,68.9l-1.1-0.3c-0.1,0-0.1-0.1-0.1-0.1c0-0.1,0.1-0.1,0.1-0.1l1,0.3
								c0.1,0,0.1,0.1,0.1,0.1C19.1,68.9,19,68.9,19,68.9z"/>
						</g>
						<g>
							<path class="st1" d="M18,69.2C18,69.2,18,69.2,18,69.2C17.9,69.1,17.9,69,18,69l0.5-0.4c0,0,0.1,0,0.1,0c0,0,0,0.1,0,0.1
								L18,69.2C18.1,69.2,18,69.2,18,69.2z"/>
						</g>
						<g>
							<path class="st1" d="M18.6,68.8C18.5,68.8,18.5,68.8,18.6,68.8l-0.4-0.7c0-0.1,0-0.1,0-0.1c0.1,0,0.1,0,0.1,0l0.3,0.6
								C18.7,68.7,18.7,68.8,18.6,68.8C18.6,68.8,18.6,68.8,18.6,68.8z"/>
						</g>
					</g>
					<g>
						<g>
							<path class="st1" d="M18.5,70.2C18.5,70.2,18.5,70.2,18.5,70.2c-0.1,0-0.1-0.1-0.1-0.2l0.6-0.9c0-0.1,0.1-0.1,0.1,0
								c0.1,0,0.1,0.1,0,0.1L18.5,70.2C18.6,70.2,18.6,70.2,18.5,70.2z"/>
						</g>
						<g>
							<path class="st1" d="M19.1,70.3c0,0-0.1,0-0.1-0.1l-0.2-0.6c0-0.1,0-0.1,0.1-0.1c0.1,0,0.1,0,0.1,0.1l0.2,0.6
								C19.2,70.2,19.2,70.3,19.1,70.3C19.1,70.3,19.1,70.3,19.1,70.3z"/>
						</g>
						<g>
							<path class="st1" d="M18.2,69.8c-0.1,0-0.1,0-0.1-0.1c0-0.1,0-0.1,0.1-0.1l0.7-0.1c0.1,0,0.1,0,0.1,0.1c0,0.1,0,0.1-0.1,0.1
								L18.2,69.8C18.3,69.8,18.3,69.8,18.2,69.8z"/>
						</g>
					</g>
					<g>
						<g>
							<path class="st1" d="M20.2,70.1C20.2,70.1,20.1,70.1,20.2,70.1l-0.8-0.9c0,0,0-0.1,0-0.2c0,0,0.1,0,0.2,0l0.7,0.8
								C20.3,70,20.3,70.1,20.2,70.1C20.3,70.1,20.2,70.1,20.2,70.1z"/>
						</g>
						<g>
							<path class="st1" d="M20.4,69.6C20.4,69.6,20.4,69.6,20.4,69.6l-0.7,0c-0.1,0-0.1-0.1-0.1-0.1c0-0.1,0-0.1,0.1-0.1l0.7,0
								c0.1,0,0.1,0.1,0.1,0.1C20.5,69.6,20.5,69.6,20.4,69.6z"/>
						</g>
						<g>
							<path class="st1" d="M19.7,70.3C19.7,70.3,19.7,70.3,19.7,70.3c-0.1,0-0.1-0.1-0.1-0.1l0.1-0.7c0-0.1,0.1-0.1,0.1-0.1
								c0.1,0,0.1,0.1,0.1,0.1l-0.1,0.7C19.8,70.2,19.7,70.3,19.7,70.3z"/>
						</g>
					</g>
					<g>
						<g>
							<path class="st1" d="M19.6,68.9c0,0-0.1,0-0.1-0.1c0-0.1,0-0.1,0.1-0.1l1-0.4c0.1,0,0.1,0,0.1,0.1c0,0.1,0,0.1-0.1,0.1
								L19.6,68.9C19.7,68.9,19.6,68.9,19.6,68.9z"/>
						</g>
						<g>
							<path class="st1" d="M20,68.7C20,68.7,20,68.7,20,68.7c-0.1,0-0.1-0.1-0.1-0.1l0.2-0.6c0-0.1,0.1-0.1,0.1-0.1
								c0.1,0,0.1,0.1,0.1,0.1l-0.2,0.6C20.1,68.7,20,68.7,20,68.7z"/>
						</g>
						<g>
							<path class="st1" d="M20.6,69C20.6,69,20.6,69,20.6,69L20,68.7c-0.1,0-0.1-0.1,0-0.1c0-0.1,0.1-0.1,0.1,0l0.6,0.3
								C20.7,68.9,20.7,68.9,20.6,69C20.7,69,20.6,69,20.6,69z"/>
						</g>
					</g>
				</g>
				<g>
					<g>
						<path class="st1" d="M19.3,69.4c-0.1,0-0.2,0-0.3-0.1c-0.1-0.1-0.1-0.2-0.2-0.3c0-0.3,0.2-0.5,0.4-0.5c0.1,0,0.2,0,0.3,0.1
							c0.1,0.1,0.1,0.2,0.2,0.3C19.8,69.1,19.6,69.4,19.3,69.4C19.3,69.4,19.3,69.4,19.3,69.4z M19.3,68.7
							C19.3,68.7,19.3,68.7,19.3,68.7c-0.1,0-0.2,0.1-0.2,0.3c0,0.1,0,0.1,0.1,0.2c0,0,0.1,0.1,0.2,0.1c0.1,0,0.2-0.1,0.2-0.3
							c0-0.1,0-0.1-0.1-0.2C19.4,68.7,19.4,68.7,19.3,68.7z"/>
					</g>
					<g>
						<path class="st1" d="M19.2,67.6c-0.1,0-0.2,0-0.2-0.1c-0.1-0.1-0.1-0.2-0.1-0.2c0-0.2,0.1-0.4,0.3-0.4c0.2,0,0.4,0.1,0.4,0.3
							v0C19.6,67.4,19.4,67.6,19.2,67.6C19.2,67.6,19.2,67.6,19.2,67.6z M19.2,67.1C19.2,67.1,19.2,67.1,19.2,67.1
							c-0.1,0-0.1,0.1-0.1,0.2c0,0,0,0.1,0,0.1c0,0,0.1,0,0.1,0c0.1,0,0.1-0.1,0.1-0.2C19.3,67.1,19.3,67.1,19.2,67.1z"/>
					</g>
					<g>
						<path class="st1" d="M17.7,68.8C17.6,68.8,17.6,68.8,17.7,68.8c-0.3-0.1-0.4-0.3-0.3-0.5c0-0.1,0.1-0.2,0.2-0.2
							c0.1,0,0.2-0.1,0.3,0h0c0.2,0.1,0.3,0.2,0.3,0.4c0,0.1-0.1,0.2-0.2,0.2C17.8,68.8,17.7,68.8,17.7,68.8z M17.7,68.3
							C17.6,68.3,17.6,68.3,17.7,68.3c-0.1,0-0.1,0.1-0.1,0.1c0,0.1,0,0.2,0.1,0.2c0,0,0.1,0,0.1,0c0,0,0.1-0.1,0.1-0.1
							C17.8,68.4,17.8,68.4,17.7,68.3L17.7,68.3C17.7,68.3,17.7,68.3,17.7,68.3z"/>
					</g>
					<g>
						<path class="st1" d="M18.4,70.7c-0.1,0-0.1,0-0.2-0.1c-0.2-0.1-0.2-0.3-0.1-0.5c0.1-0.1,0.1-0.1,0.2-0.2c0.1,0,0.2,0,0.3,0
							c0.2,0.1,0.2,0.3,0.1,0.5C18.6,70.6,18.6,70.7,18.4,70.7C18.4,70.7,18.4,70.7,18.4,70.7z M18.4,70.2
							C18.4,70.2,18.4,70.2,18.4,70.2c-0.1,0-0.1,0-0.1,0.1c0,0.1,0,0.2,0,0.2c0,0,0.1,0,0.1,0c0,0,0.1,0,0.1-0.1
							C18.6,70.3,18.5,70.3,18.4,70.2C18.4,70.2,18.4,70.2,18.4,70.2z"/>
					</g>
					<g>
						<path class="st1" d="M20.4,70.6C20.4,70.6,20.3,70.6,20.4,70.6c-0.1,0-0.2-0.1-0.3-0.1l0,0c-0.1-0.2-0.1-0.4,0.1-0.5
							c0.1-0.1,0.2-0.1,0.3-0.1c0.1,0,0.2,0.1,0.2,0.1c0.1,0.2,0.1,0.4,0,0.5C20.5,70.6,20.5,70.6,20.4,70.6z M20.3,70.3
							C20.3,70.3,20.3,70.4,20.3,70.3c0.1,0.1,0.2,0,0.2,0c0.1-0.1,0.1-0.1,0-0.2c0,0-0.1,0-0.1-0.1c0,0-0.1,0-0.1,0
							C20.2,70.2,20.2,70.2,20.3,70.3L20.3,70.3z"/>
					</g>
					<g>
						<path class="st1" d="M20.9,68.7c0,0-0.1,0-0.1,0c-0.1,0-0.2-0.1-0.2-0.2c-0.1-0.2,0-0.4,0.2-0.5c0.1,0,0.2,0,0.3,0
							c0.1,0,0.2,0.1,0.2,0.2c0.1,0.2,0,0.4-0.2,0.5l0,0C21,68.6,20.9,68.7,20.9,68.7z M21,68.5L21,68.5L21,68.5z M20.9,68.2
							C20.9,68.2,20.8,68.2,20.9,68.2c-0.1,0-0.2,0.1-0.1,0.2c0,0,0,0.1,0.1,0.1c0,0,0.1,0,0.1,0v0c0.1,0,0.1-0.1,0.1-0.2
							C21,68.2,21,68.2,20.9,68.2C20.9,68.2,20.9,68.2,20.9,68.2z"/>
					</g>
				</g>
			</g>
		</g>
		<g>
			<g>
				<polygon class="st1" points="18.1,56.4 17.3,51.9 18.1,48.7 18.9,51.9 				"/>
			</g>
			<g>
				<polygon class="st1" points="19.9,59.7 19.2,55.9 19.9,53.1 20.6,55.9 				"/>
			</g>
		</g>
		<g>
			<g>
				<g>
					<g>
						<g>
							<path class="st1" d="M85.3,37.8c-0.1,0-0.1,0-0.2-0.1l-1.3-1.3c-0.1-0.1-0.1-0.2,0-0.3c0.1-0.1,0.2-0.1,0.3,0l1.3,1.3
								c0.1,0.1,0.1,0.2,0,0.3C85.4,37.8,85.4,37.8,85.3,37.8z"/>
						</g>
						<g>
							<path class="st1" d="M83.7,37.4c-0.1,0-0.2-0.1-0.2-0.2c0-0.1,0.1-0.2,0.2-0.2l1.2-0.1c0.1,0,0.2,0.1,0.2,0.2
								c0,0.1-0.1,0.2-0.2,0.2L83.7,37.4C83.7,37.4,83.7,37.4,83.7,37.4z"/>
						</g>
						<g>
							<path class="st1" d="M84.8,37.3C84.8,37.3,84.8,37.3,84.8,37.3c-0.1,0-0.2-0.1-0.2-0.2l0.1-1.2c0-0.1,0.1-0.2,0.2-0.2
								c0.1,0,0.2,0.1,0.2,0.2L85,37.1C85,37.2,84.9,37.3,84.8,37.3z"/>
						</g>
					</g>
					<g>
						<g>
							<path class="st1" d="M83.5,39.4c-0.1,0-0.2,0-0.2-0.1c-0.1-0.1,0-0.2,0.1-0.3l1.7-0.9c0.1-0.1,0.2,0,0.3,0.1
								c0.1,0.1,0,0.2-0.1,0.3L83.5,39.4C83.6,39.4,83.5,39.4,83.5,39.4z"/>
						</g>
						<g>
							<path class="st1" d="M84.3,39.9C84.3,39.9,84.3,39.9,84.3,39.9c-0.2,0-0.2-0.2-0.2-0.3l0.3-1.1c0-0.1,0.1-0.2,0.3-0.2
								c0.1,0,0.2,0.1,0.2,0.3l-0.3,1.1C84.5,39.9,84.4,39.9,84.3,39.9z"/>
						</g>
						<g>
							<path class="st1" d="M84.6,38.8C84.6,38.8,84.5,38.8,84.6,38.8l-1.2-0.4c-0.1,0-0.2-0.2-0.1-0.3c0-0.1,0.2-0.2,0.3-0.1
								l1.1,0.4c0.1,0,0.2,0.2,0.1,0.3C84.7,38.8,84.7,38.8,84.6,38.8z"/>
						</g>
					</g>
					<g>
						<g>
							<path class="st1" d="M86.2,40.7c-0.1,0-0.2-0.1-0.2-0.2l-0.3-1.9c0-0.1,0.1-0.2,0.2-0.2c0.1,0,0.2,0.1,0.2,0.2l0.3,1.9
								C86.4,40.6,86.3,40.7,86.2,40.7C86.2,40.7,86.2,40.7,86.2,40.7z"/>
						</g>
						<g>
							<path class="st1" d="M86.9,40.2c0,0-0.1,0-0.1,0l-1-0.6c-0.1-0.1-0.1-0.2-0.1-0.3c0.1-0.1,0.2-0.1,0.3-0.1l1,0.6
								c0.1,0.1,0.1,0.2,0.1,0.3C87.1,40.1,87,40.2,86.9,40.2z"/>
						</g>
						<g>
							<path class="st1" d="M85.2,40.4c0,0-0.1,0-0.1,0c-0.1-0.1-0.1-0.2,0-0.3l0.7-0.9c0.1-0.1,0.2-0.1,0.3,0
								c0.1,0.1,0.1,0.2,0,0.3l-0.7,0.9C85.4,40.4,85.3,40.4,85.2,40.4z"/>
						</g>
					</g>
					<g>
						<g>
							<path class="st1" d="M88.2,38.6C88.2,38.6,88.2,38.6,88.2,38.6l-1.9-0.3c-0.1,0-0.2-0.1-0.2-0.2c0-0.1,0.1-0.2,0.2-0.2
								l1.9,0.3c0.1,0,0.2,0.1,0.2,0.2C88.4,38.6,88.3,38.6,88.2,38.6z"/>
						</g>
						<g>
							<path class="st1" d="M87.1,38.4c-0.1,0-0.1,0-0.2-0.1c-0.1-0.1-0.1-0.2,0-0.3l0.9-0.7c0.1-0.1,0.2-0.1,0.3,0
								c0.1,0.1,0.1,0.2,0,0.3l-0.9,0.7C87.2,38.4,87.1,38.4,87.1,38.4z"/>
						</g>
						<g>
							<path class="st1" d="M87.7,39.4c-0.1,0-0.1,0-0.2-0.1l-0.6-1c-0.1-0.1,0-0.2,0.1-0.3c0.1-0.1,0.2,0,0.3,0.1l0.6,1
								c0.1,0.1,0,0.2-0.1,0.3C87.8,39.4,87.7,39.4,87.7,39.4z"/>
						</g>
					</g>
					<g>
						<g>
							<path class="st1" d="M86,37.7C86,37.7,86,37.7,86,37.7c-0.2-0.1-0.2-0.2-0.2-0.3l0.9-1.7c0.1-0.1,0.2-0.1,0.3-0.1
								c0.1,0.1,0.1,0.2,0.1,0.3l-0.9,1.7C86.2,37.6,86.1,37.7,86,37.7z"/>
						</g>
						<g>
							<path class="st1" d="M86.4,37.1c-0.1,0-0.2-0.1-0.2-0.1l-0.4-1.1c0-0.1,0-0.2,0.1-0.3c0.1,0,0.2,0,0.3,0.1l0.4,1.1
								C86.6,36.9,86.5,37,86.4,37.1C86.4,37,86.4,37.1,86.4,37.1z"/>
						</g>
						<g>
							<path class="st1" d="M86.4,37.1c-0.1,0-0.2-0.1-0.2-0.2c0-0.1,0-0.2,0.2-0.3l1.1-0.3c0.1,0,0.2,0,0.3,0.2
								c0,0.1,0,0.2-0.2,0.3L86.4,37.1C86.4,37.1,86.4,37.1,86.4,37.1z"/>
						</g>
					</g>
				</g>
				<g>
					<g>
						<path class="st1" d="M85.8,38.8c-0.2,0-0.4-0.1-0.6-0.2c-0.3-0.3-0.3-0.8,0-1.2c0.3-0.3,0.8-0.3,1.2,0
							c0.2,0.2,0.2,0.4,0.2,0.6c0,0.2-0.1,0.4-0.2,0.6C86.2,38.8,86,38.8,85.8,38.8z M85.8,37.6c-0.1,0-0.2,0-0.3,0.1
							c-0.2,0.2-0.2,0.4,0,0.6c0.2,0.2,0.4,0.2,0.6,0c0.1-0.1,0.1-0.2,0.1-0.3c0-0.1,0-0.2-0.1-0.3C86,37.7,85.9,37.6,85.8,37.6z"/>
					</g>
					<g>
						<path class="st1" d="M83.7,36.6c-0.2,0-0.3-0.1-0.5-0.2c-0.1-0.1-0.2-0.3-0.2-0.5c0-0.2,0.1-0.3,0.2-0.5
							c0.3-0.3,0.7-0.3,0.9,0c0.1,0.1,0.2,0.3,0.2,0.5c0,0.2-0.1,0.3-0.2,0.5C84,36.5,83.8,36.6,83.7,36.6z M83.7,35.7
							c-0.1,0-0.1,0-0.2,0.1c-0.1,0.1-0.1,0.2,0,0.3c0.1,0.1,0.2,0.1,0.3,0c0,0,0.1-0.1,0.1-0.2c0-0.1,0-0.1-0.1-0.2
							C83.8,35.7,83.7,35.7,83.7,35.7z"/>
					</g>
					<g>
						<path class="st1" d="M83.1,40c-0.2,0-0.5-0.1-0.6-0.4c-0.1-0.2-0.1-0.3,0-0.5c0.1-0.2,0.2-0.3,0.3-0.4c0.3-0.2,0.7,0,0.9,0.3
							c0.1,0.2,0.1,0.3,0,0.5c-0.1,0.2-0.2,0.3-0.3,0.4C83.3,40,83.2,40,83.1,40z M83.1,39.1c0,0-0.1,0-0.1,0
							c-0.1,0-0.1,0.1-0.1,0.1c0,0.1,0,0.1,0,0.2c0.1,0.1,0.2,0.2,0.3,0.1c0.1,0,0.1-0.1,0.1-0.1c0-0.1,0-0.1,0-0.2
							C83.3,39.2,83.2,39.1,83.1,39.1z"/>
					</g>
					<g>
						<path class="st1" d="M86.2,41.6c-0.3,0-0.6-0.2-0.7-0.6v0c0-0.2,0-0.3,0.1-0.5c0.1-0.1,0.3-0.2,0.4-0.3
							c0.4-0.1,0.7,0.2,0.8,0.5c0,0.2,0,0.3-0.1,0.5c-0.1,0.1-0.3,0.2-0.4,0.3C86.3,41.6,86.3,41.6,86.2,41.6z M86,41
							c0,0.1,0.1,0.2,0.3,0.2c0.1,0,0.1,0,0.1-0.1c0,0,0-0.1,0-0.2c0-0.1-0.1-0.2-0.3-0.2c-0.1,0-0.1,0-0.1,0.1
							C86,40.8,86,40.9,86,41L86,41z"/>
					</g>
					<g>
						<path class="st1" d="M88.7,39.1c0,0-0.1,0-0.1,0h0c-0.4-0.1-0.6-0.4-0.5-0.8c0-0.2,0.1-0.3,0.3-0.4c0.1-0.1,0.3-0.1,0.5-0.1
							c0.4,0.1,0.6,0.4,0.5,0.8c0,0.2-0.1,0.3-0.3,0.4C89,39.1,88.8,39.1,88.7,39.1z M88.6,38.7c0.1,0,0.1,0,0.2,0
							c0,0,0.1-0.1,0.1-0.1c0-0.1-0.1-0.2-0.2-0.3c-0.1,0-0.1,0-0.2,0c0,0-0.1,0.1-0.1,0.1C88.4,38.6,88.5,38.7,88.6,38.7L88.6,38.7
							z"/>
					</g>
					<g>
						<path class="st1" d="M87.1,36c-0.1,0-0.2,0-0.3-0.1c-0.3-0.2-0.5-0.6-0.3-0.9c0.1-0.2,0.2-0.3,0.4-0.3c0.2-0.1,0.3,0,0.5,0
							c0.3,0.2,0.5,0.6,0.3,0.9c-0.1,0.2-0.2,0.3-0.4,0.3C87.2,36,87.2,36,87.1,36z M87.1,35.2C87.1,35.2,87,35.2,87.1,35.2
							c-0.1,0-0.2,0.1-0.2,0.1c-0.1,0.1,0,0.2,0.1,0.3c0.1,0,0.1,0,0.2,0c0.1,0,0.1-0.1,0.1-0.1c0.1-0.1,0-0.2-0.1-0.3
							C87.2,35.2,87.1,35.2,87.1,35.2z"/>
					</g>
				</g>
			</g>
			<g>
				<g>
					<g>
						<g>
							<path class="st1" d="M82.9,43.2C82.9,43.2,82.9,43.2,82.9,43.2l-0.8-0.8c0,0,0-0.1,0-0.2c0,0,0.1,0,0.2,0L83,43
								C83,43.1,83,43.1,82.9,43.2C83,43.2,82.9,43.2,82.9,43.2z"/>
						</g>
						<g>
							<path class="st1" d="M82,43c-0.1,0-0.1,0-0.1-0.1c0-0.1,0-0.1,0.1-0.1l0.7,0c0.1,0,0.1,0,0.1,0.1c0,0.1,0,0.1-0.1,0.1L82,43
								C82,43,82,43,82,43z"/>
						</g>
						<g>
							<path class="st1" d="M82.6,42.9C82.6,42.9,82.6,42.9,82.6,42.9c-0.1,0-0.1-0.1-0.1-0.1l0-0.7c0-0.1,0-0.1,0.1-0.1
								c0.1,0,0.1,0.1,0.1,0.1l0,0.7C82.7,42.9,82.7,42.9,82.6,42.9z"/>
						</g>
					</g>
					<g>
						<g>
							<path class="st1" d="M81.9,44.1C81.8,44.1,81.8,44.1,81.9,44.1c-0.1-0.1-0.1-0.2,0-0.2l1-0.5c0.1,0,0.1,0,0.1,0
								c0,0.1,0,0.1,0,0.1L81.9,44.1C81.9,44.1,81.9,44.1,81.9,44.1z"/>
						</g>
						<g>
							<path class="st1" d="M82.3,44.4C82.3,44.4,82.3,44.4,82.3,44.4c-0.1,0-0.1-0.1-0.1-0.1l0.2-0.6c0-0.1,0.1-0.1,0.1-0.1
								c0.1,0,0.1,0.1,0.1,0.1l-0.2,0.6C82.4,44.4,82.4,44.4,82.3,44.4z"/>
						</g>
						<g>
							<path class="st1" d="M82.5,43.8C82.5,43.8,82.5,43.8,82.5,43.8l-0.7-0.2c-0.1,0-0.1-0.1-0.1-0.1c0-0.1,0.1-0.1,0.1-0.1
								l0.6,0.2c0.1,0,0.1,0.1,0.1,0.1C82.6,43.8,82.5,43.8,82.5,43.8z"/>
						</g>
					</g>
					<g>
						<g>
							<path class="st1" d="M83.4,44.9c-0.1,0-0.1,0-0.1-0.1l-0.2-1.1c0-0.1,0-0.1,0.1-0.1c0.1,0,0.1,0,0.1,0.1l0.2,1.1
								C83.5,44.8,83.5,44.9,83.4,44.9C83.4,44.9,83.4,44.9,83.4,44.9z"/>
						</g>
						<g>
							<path class="st1" d="M83.8,44.6C83.8,44.6,83.8,44.6,83.8,44.6l-0.6-0.4c-0.1,0-0.1-0.1,0-0.1c0-0.1,0.1-0.1,0.1,0l0.6,0.4
								C83.9,44.4,84,44.5,83.8,44.6C83.9,44.5,83.9,44.6,83.8,44.6z"/>
						</g>
						<g>
							<path class="st1" d="M82.9,44.7C82.8,44.7,82.8,44.7,82.9,44.7c-0.1-0.1-0.1-0.1-0.1-0.2l0.4-0.5c0,0,0.1-0.1,0.2,0
								c0,0,0.1,0.1,0,0.2L82.9,44.7C82.9,44.7,82.9,44.7,82.9,44.7z"/>
						</g>
					</g>
					<g>
						<g>
							<path class="st1" d="M84.6,43.7C84.6,43.7,84.6,43.7,84.6,43.7l-1.1-0.2c-0.1,0-0.1-0.1-0.1-0.1c0-0.1,0.1-0.1,0.1-0.1
								l1.1,0.2c0.1,0,0.1,0.1,0.1,0.1C84.7,43.7,84.6,43.7,84.6,43.7z"/>
						</g>
						<g>
							<path class="st1" d="M83.9,43.6C83.9,43.6,83.8,43.6,83.9,43.6c-0.1-0.1-0.1-0.2-0.1-0.2l0.5-0.4c0,0,0.1,0,0.2,0
								c0,0,0,0.1,0,0.2L83.9,43.6C83.9,43.6,83.9,43.6,83.9,43.6z"/>
						</g>
						<g>
							<path class="st1" d="M84.3,44.1C84.2,44.1,84.2,44.1,84.3,44.1l-0.4-0.6c0-0.1,0-0.1,0-0.1c0,0,0.1,0,0.1,0l0.4,0.6
								C84.4,44,84.4,44.1,84.3,44.1C84.3,44.1,84.3,44.1,84.3,44.1z"/>
						</g>
					</g>
					<g>
						<g>
							<path class="st1" d="M83.3,43.2C83.3,43.2,83.3,43.1,83.3,43.2c-0.1,0-0.1-0.1-0.1-0.2l0.5-1c0-0.1,0.1-0.1,0.1,0
								c0.1,0,0.1,0.1,0,0.1L83.3,43.2C83.4,43.1,83.4,43.2,83.3,43.2z"/>
						</g>
						<g>
							<path class="st1" d="M83.5,42.8c0,0-0.1,0-0.1-0.1l-0.2-0.6c0-0.1,0-0.1,0.1-0.1c0.1,0,0.1,0,0.1,0.1l0.2,0.6
								C83.6,42.7,83.6,42.8,83.5,42.8C83.5,42.8,83.5,42.8,83.5,42.8z"/>
						</g>
						<g>
							<path class="st1" d="M83.5,42.8c0,0-0.1,0-0.1-0.1c0-0.1,0-0.1,0.1-0.1l0.6-0.2c0.1,0,0.1,0,0.1,0.1c0,0.1,0,0.1-0.1,0.1
								L83.5,42.8C83.5,42.8,83.5,42.8,83.5,42.8z"/>
						</g>
					</g>
				</g>
				<g>
					<g>
						<path class="st1" d="M83.2,43.8c-0.1,0-0.2,0-0.3-0.1c-0.2-0.2-0.2-0.5,0-0.6c0.2-0.2,0.5-0.2,0.6,0l0,0
							c0.2,0.2,0.2,0.5,0,0.6C83.4,43.8,83.3,43.8,83.2,43.8z M83.2,43.1c-0.1,0-0.1,0-0.2,0.1c-0.1,0.1-0.1,0.2,0,0.3
							c0.1,0.1,0.2,0.1,0.3,0c0.1-0.1,0.1-0.2,0-0.3C83.3,43.1,83.2,43.1,83.2,43.1z"/>
					</g>
					<g>
						<path class="st1" d="M82,42.5c-0.1,0-0.2,0-0.3-0.1c-0.1-0.1-0.1-0.2-0.1-0.3c0-0.1,0-0.2,0.1-0.3c0.1-0.1,0.4-0.1,0.5,0l0,0
							c0.1,0.1,0.1,0.2,0.1,0.3c0,0.1,0,0.2-0.1,0.3C82.1,42.5,82.1,42.5,82,42.5z M82,42c0,0-0.1,0-0.1,0c0,0,0,0.1,0,0.1
							c0,0,0,0.1,0,0.1s0.1,0,0.1,0c0,0,0.1,0,0.1,0c0,0,0-0.1,0-0.1c0,0,0-0.1,0-0.1l0,0C82,42,82,42,82,42z"/>
					</g>
					<g>
						<path class="st1" d="M81.7,44.5c-0.1,0-0.3-0.1-0.3-0.2c0-0.1-0.1-0.2,0-0.3c0-0.1,0.1-0.2,0.2-0.2c0.2-0.1,0.4,0,0.5,0.2
							c0,0.1,0.1,0.2,0,0.3c0,0.1-0.1,0.2-0.2,0.2C81.8,44.5,81.7,44.5,81.7,44.5z M81.7,44C81.6,44,81.6,44,81.7,44L81.7,44
							c-0.1,0-0.1,0.1-0.1,0.1c0,0,0,0.1,0,0.1c0,0.1,0.1,0.1,0.2,0.1c0,0,0.1,0,0.1-0.1c0,0,0-0.1,0-0.1C81.8,44,81.7,44,81.7,44z
							 M81.5,43.9L81.5,43.9L81.5,43.9z"/>
					</g>
					<g>
						<path class="st1" d="M83.4,45.4c-0.2,0-0.3-0.1-0.4-0.3l0,0c0-0.1,0-0.2,0.1-0.3c0.1-0.1,0.1-0.1,0.2-0.1
							c0.2,0,0.4,0.1,0.4,0.3c0,0.1,0,0.2-0.1,0.3C83.7,45.3,83.6,45.4,83.4,45.4C83.5,45.4,83.4,45.4,83.4,45.4z M83.4,44.9
							C83.4,44.9,83.4,44.9,83.4,44.9c-0.1,0-0.1,0-0.1,0.1c0,0,0,0.1,0,0.1h0c0,0.1,0.1,0.1,0.2,0.1c0,0,0.1,0,0.1-0.1
							c0,0,0-0.1,0-0.1C83.6,44.9,83.5,44.9,83.4,44.9z"/>
					</g>
					<g>
						<path class="st1" d="M84.8,44C84.8,44,84.8,44,84.8,44L84.8,44c-0.3,0-0.4-0.2-0.4-0.4c0-0.1,0.1-0.2,0.1-0.2
							c0.1-0.1,0.2-0.1,0.3-0.1c0.2,0,0.3,0.2,0.3,0.4c0,0.1-0.1,0.2-0.1,0.2C85,44,84.9,44,84.8,44z M84.8,43.8c0,0,0.1,0,0.1,0
							c0,0,0.1-0.1,0.1-0.1c0-0.1,0-0.2-0.1-0.2c0,0-0.1,0-0.1,0c0,0-0.1,0.1-0.1,0.1C84.7,43.7,84.7,43.8,84.8,43.8z"/>
					</g>
					<g>
						<path class="st1" d="M83.9,42.2c-0.1,0-0.1,0-0.2,0c-0.2-0.1-0.2-0.3-0.2-0.5c0-0.1,0.1-0.1,0.2-0.2c0.1,0,0.2,0,0.3,0
							c0.2,0.1,0.2,0.3,0.2,0.5v0c0,0.1-0.1,0.1-0.2,0.2C84,42.2,84,42.2,83.9,42.2z M83.9,41.7C83.9,41.7,83.9,41.7,83.9,41.7
							c-0.1,0-0.1,0-0.1,0.1c0,0.1,0,0.2,0.1,0.2c0,0,0.1,0,0.1,0c0,0,0.1,0,0.1-0.1l0,0C84.1,41.8,84.1,41.8,83.9,41.7
							C84,41.7,83.9,41.7,83.9,41.7z M84.1,42L84.1,42L84.1,42z"/>
					</g>
				</g>
			</g>
		</g>
		<g>
			<g>
				<polygon class="st1" points="89.3,70.1 88.5,65.6 89.3,62.4 90.2,65.6 				"/>
			</g>
			<g>
				<polygon class="st1" points="91.2,73.4 90.5,69.5 91.2,66.8 91.9,69.5 				"/>
			</g>
		</g>
		<g>
			<g>
				<circle class="st1" cx="52.4" cy="51.2" r="1.6"/>
			</g>
			<g>
				<circle class="st1" cx="52.4" cy="57.1" r="1.6"/>
			</g>
			<g>
				<circle class="st1" cx="52.4" cy="63" r="1.6"/>
			</g>
			<g>
				<circle class="st1" cx="52.4" cy="68.9" r="1.6"/>
			</g>
			<g>
				<circle class="st1" cx="52.4" cy="74.8" r="1.6"/>
			</g>
		</g>
		<g>
			<g>
				<path class="st1" d="M64.6,57l-1-1.8l-1,1.8l-1.8,1l1.8,1l1,1.8l1-1.8l1.8-1L64.6,57z M64.1,58.4l-0.4,0.8l-0.4-0.8L62.4,58
					l0.8-0.4l0.4-0.8l0.4,0.8l0.8,0.4L64.1,58.4z"/>
			</g>
			<g>
				<path class="st1" d="M67.2,51.1L66,49l-1.2,2.1l-2.1,1.2l2.1,1.2l1.2,2.1l1.2-2.1l2.1-1.2L67.2,51.1z M66.5,52.8L66,53.7
					l-0.5-0.9l-0.9-0.5l0.9-0.5l0.5-0.9l0.5,0.9l0.9,0.5L66.5,52.8z"/>
			</g>
		</g>
		<g>
			<g>
				<circle class="st1" cx="41.2" cy="33.8" r="1.6"/>
			</g>
			<g>
				<circle class="st1" cx="41.2" cy="39.7" r="1.6"/>
			</g>
			<g>
				<circle class="st1" cx="41.2" cy="45.6" r="1.6"/>
			</g>
			<g>
				<circle class="st1" cx="41.2" cy="51.5" r="1.6"/>
			</g>
			<g>
				<circle class="st1" cx="41.2" cy="57.4" r="1.6"/>
			</g>
			<g>
				<circle class="st1" cx="41.2" cy="63.3" r="1.6"/>
			</g>
			<g>
				<circle class="st1" cx="41.2" cy="69.2" r="1.6"/>
			</g>
			<g>
				<circle class="st1" cx="41.2" cy="75.1" r="1.6"/>
			</g>
		</g>
		<g>
			<g>
				<path class="st1" d="M31.4,54.9c-0.2,0-0.3-0.1-0.3-0.3c0-0.9,0-2.2-0.1-2.5c-0.2,0.1-0.5,0.4-0.6,0.5c-0.1,0.1-0.3,0.1-0.5,0
					c-0.1-0.1-0.1-0.1-0.1-0.2s0-0.2,0.1-0.2c0.1-0.1,0.4-0.4,0.5-0.6c-0.4-0.1-1.7-0.1-2.5-0.1c-0.2,0-0.3-0.1-0.3-0.3
					c0-0.2,0.1-0.3,0.3-0.3c0.9,0,2.2,0,2.5-0.1c-0.1-0.2-0.4-0.5-0.5-0.6c-0.1-0.1-0.1-0.1-0.1-0.2s0-0.2,0.1-0.2
					c0.1-0.1,0.3-0.1,0.5,0c0.1,0.1,0.4,0.4,0.6,0.5c0.1-0.4,0.1-1.7,0.1-2.5c0-0.2,0.1-0.3,0.3-0.3c0.2,0,0.3,0.1,0.3,0.3
					c0,0.9,0,2.2,0.1,2.5c0.2-0.1,0.5-0.4,0.6-0.5c0.1-0.1,0.3-0.1,0.5,0c0.1,0.1,0.1,0.1,0.1,0.2s0,0.2-0.1,0.2
					c-0.1,0.1-0.4,0.4-0.5,0.6c0.4,0.1,1.7,0.1,2.5,0.1c0.2,0,0.3,0.1,0.3,0.3c0,0.2-0.1,0.3-0.3,0.3c-0.9,0-2.2,0-2.5,0.1
					c0.1,0.2,0.4,0.5,0.5,0.6c0.1,0.1,0.1,0.1,0.1,0.2s0,0.2-0.1,0.2c-0.1,0.1-0.3,0.1-0.5,0c-0.1-0.1-0.4-0.4-0.6-0.5
					c-0.1,0.4-0.1,1.7-0.1,2.5C31.7,54.7,31.6,54.9,31.4,54.9z M31.1,51.3C31.2,51.3,31.2,51.3,31.1,51.3c0.2,0.1,0.2,0.1,0.3,0.1
					c0.1-0.1,0.1-0.1,0.2-0.1c0,0,0.1,0,0.1,0c0,0,0-0.1,0-0.1c0-0.1,0.1-0.1,0.1-0.2c-0.1-0.1-0.1-0.1-0.1-0.2c0,0,0-0.1,0-0.1
					c0,0-0.1,0-0.1,0c-0.1,0-0.1-0.1-0.2-0.1c-0.1,0.1-0.1,0.1-0.2,0.1c0,0-0.1,0-0.1,0c0,0,0,0.1,0,0.1c0,0.1-0.1,0.1-0.1,0.2
					C31,51.1,31.1,51.2,31.1,51.3C31.1,51.3,31.1,51.3,31.1,51.3z"/>
			</g>
			<g>
				<path class="st1" d="M33.8,61c-0.2,0-0.3-0.1-0.3-0.3c0-0.7,0-1.8-0.1-2.2c-0.1,0.1-0.4,0.3-0.4,0.4c0,0,0,0,0,0c0,0,0,0,0,0
					c-0.1,0.1-0.3,0.1-0.5,0c-0.1-0.1-0.1-0.1-0.1-0.2s0-0.2,0.1-0.2l0,0l0,0c0.1-0.1,0.3-0.3,0.4-0.4c-0.4-0.1-1.4-0.1-2.2-0.1
					c-0.2,0-0.3-0.1-0.3-0.3c0-0.2,0.1-0.3,0.3-0.3c0.7,0,1.8,0,2.2-0.1c-0.1-0.1-0.3-0.4-0.4-0.4c-0.1-0.1-0.1-0.1-0.1-0.2
					s0-0.2,0.1-0.2c0.1-0.1,0.3-0.1,0.5,0c0,0,0,0,0,0c0.1,0.1,0.3,0.3,0.4,0.4c0.1-0.4,0.1-1.4,0.1-2.2c0-0.2,0.1-0.3,0.3-0.3
					s0.3,0.1,0.3,0.3c0,0.7,0,1.8,0.1,2.2c0.1-0.1,0.4-0.3,0.4-0.4c0.1-0.1,0.3-0.1,0.5,0c0.1,0.1,0.1,0.1,0.1,0.2s0,0.2-0.1,0.2
					c-0.1,0.1-0.3,0.3-0.4,0.4c0.4,0.1,1.4,0.1,2.2,0.1c0.2,0,0.3,0.1,0.3,0.3c0,0.2-0.1,0.3-0.3,0.3c-0.7,0-1.8,0-2.2,0.1
					c0.1,0.1,0.3,0.4,0.4,0.4c0.1,0.1,0.1,0.1,0.1,0.2s0,0.2-0.1,0.2c-0.1,0.1-0.3,0.1-0.5,0l0,0c-0.1-0.1-0.3-0.3-0.4-0.4
					c-0.1,0.4-0.1,1.4-0.1,2.2C34.1,60.9,34,61,33.8,61z M33.6,57.8C33.6,57.8,33.7,57.8,33.6,57.8c0.1,0,0.2,0.1,0.2,0.1
					c0,0,0.1-0.1,0.1-0.1c0,0,0,0,0.1,0c0,0,0,0,0-0.1c0-0.1,0.1-0.1,0.1-0.1c0,0-0.1-0.1-0.1-0.1c0,0,0,0,0-0.1c0,0,0,0-0.1,0
					c-0.1,0-0.1-0.1-0.1-0.1c0,0-0.1,0.1-0.1,0.1c0,0,0,0-0.1,0c0,0,0,0,0,0.1c0,0.1-0.1,0.1-0.1,0.1C33.5,57.7,33.6,57.7,33.6,57.8
					C33.6,57.8,33.6,57.8,33.6,57.8z"/>
			</g>
		</g>
	</g>
</g>
</svg>
