
<svg version="1.1" id="Слой_1" xmlns="http://www.w3.org/2000/svg" xmlns:xlink="http://www.w3.org/1999/xlink" x="0px" y="0px"
	 viewBox="0 0 100 100" style="enable-background:new 0 0 100 100;" xml:space="preserve">

<g id="Велопарковки_1_">
	<g id="Элементы_3_">
		<g>
			<g>
				<path d="M33.5,82.3H22.6V67.5c0.8,0,2.5,0.2,2.5,0.2l0-1.4c-0.8-0.1-1.7-0.2-2.5-0.2v0V33.7h-1.4v32.4v0v1.4v0V83
					c0,0.4,0.3,0.7,0.7,0.7h14.8C35.6,83.4,34.5,82.9,33.5,82.3z"/>
			</g>
			<g>
				<path d="M21.9,35c-6.4,0-11.6-5.2-11.6-11.6s5.2-11.6,11.6-11.6S33.5,17,33.5,23.4S28.3,35,21.9,35z M21.9,13.2
					c-5.6,0-10.2,4.6-10.2,10.2s4.6,10.2,10.2,10.2s10.2-4.6,10.2-10.2S27.6,13.2,21.9,13.2z"/>
			</g>
		</g>
		<g>
			<g>
				<g>
					
						<rect x="65.6" y="52.9" transform="matrix(0.5416 -0.8407 0.8407 0.5416 -13.0757 83.2479)" width="8.3" height="1.4"/>
				</g>
				<g>
					<path d="M75.2,51h-6.2c-0.5,0-0.9-0.4-0.9-0.9c0-0.5,0.4-0.9,0.9-0.9h6.2c0.5,0,0.9,0.4,0.9,0.9
						C76,50.6,75.6,51,75.2,51z"/>
				</g>
			</g>
			<g>
				<path d="M67.9,56.5c-1.9-2.1-4-3.9-6.4-5.4c-4.3-2.7-9.2-4.4-14.2-4.9l2.3-9.6c0.1-0.4-0.1-0.7-0.5-0.8
					c0,0-0.1,0-0.1,0v0l0,0c0,0,0,0,0,0l0,0l-0.1,0c-3.9-0.2-6.1-1.4-6.1-2.2c0-0.9,2.5-2.1,6.5-2.2c-0.1-0.3-0.1-0.5-0.1-0.8
					c0-0.2,0.1-0.4,0.1-0.6c-4,0.1-7.9,1.3-7.9,3.6c0,2.1,3.3,3.2,6.7,3.5L44.6,52c0.2,0,0.5,0.1,0.7,0.1c0.2,0.1,0.4,0.1,0.7,0.2
					l1.1-4.7c9.3,0.8,17.9,6,22.9,13.8c0.4-0.2,0.9-0.4,1.3-0.5C70.3,59.3,69.2,57.8,67.9,56.5z"/>
			</g>
			<g>
				<path d="M55.9,31.8c-0.1,0.4-0.5,0.6-0.8,0.6c-0.1,0-0.2,0-0.3,0c-1-0.3-2.2-0.6-3.5-0.6c-0.2,0-0.4-0.1-0.5-0.2
					c-0.2-0.2-0.3-0.4-0.3-0.7c0-0.3,0.2-0.5,0.4-0.7c0.2-0.1,0.4-0.2,0.6-0.2c1.4,0.1,2.8,0.4,3.9,0.7
					C55.8,30.8,56.1,31.3,55.9,31.8z"/>
			</g>
			<g>
				<path d="M44.3,39.5H36c-0.8,0-1.4,0.6-1.4,1.4v0.2c0,2,1.1,7.3,3.1,7.3h3.5c0.7,0,3.2-2,4.5-7.2
					C45.9,40.4,45.3,39.5,44.3,39.5z"/>
				<path d="M41.2,48.5h-3.5c-2.1,0-3.2-5.3-3.2-7.4v-0.2c0-0.8,0.7-1.5,1.5-1.5h8.4c0.5,0,0.9,0.2,1.2,0.6
					c0.3,0.4,0.4,0.8,0.3,1.3C44.5,46.4,42,48.5,41.2,48.5z M36,39.6c-0.7,0-1.3,0.6-1.3,1.3v0.2c0,2.2,1.1,7.2,3,7.2h3.5
					c0.8,0,3.2-2.1,4.4-7.1c0.1-0.4,0-0.8-0.2-1.1c-0.3-0.3-0.6-0.5-1-0.5H36z"/>
			</g>
		</g>
		<g>
			<g>
				<g>
					<circle cx="75.1" cy="72.7" r="1.6"/>
				</g>
				<g>
					<path d="M75.1,61.7c-1.1,0-2.1,0.2-3.1,0.4c-0.5,0.1-0.9,0.3-1.3,0.5c-3.9,1.7-6.7,5.6-6.7,10.1c0,6.1,5,11,11,11
						c6.1,0,11-5,11-11C86.1,66.6,81.2,61.7,75.1,61.7z M75.1,75.7c-1.6,0-3-1.3-3-3c0-1.6,1.3-3,3-3c1.6,0,3,1.3,3,3
						C78.1,74.3,76.7,75.7,75.1,75.7z"/>
				</g>
			</g>
			<g>
				<g>
					<circle cx="41.5" cy="68" r="2.2"/>
				</g>
				<g>
					<path d="M41.5,82.3c-2-7.3-7.8-12.7-15-14.4V68c0,6.7,4.4,12.4,10.5,14.3c1.4,0.5,2.9,0.7,4.5,0.7
						c0.1,0,0.1,0,0.2,0C41.6,82.8,41.5,82.5,41.5,82.3z M45.6,53.6c-0.2-0.1-0.4-0.1-0.7-0.2c-0.2-0.1-0.5-0.1-0.7-0.1
						c-0.9-0.2-1.8-0.3-2.8-0.3c-1.4,0-2.8,0.2-4.1,0.6c-0.6,0.2-1.2,0.4-1.8,0.6c-4.9,2.1-8.4,6.8-9,12.3c3.3,0.7,6.3,2.2,8.9,4.3
						c3.6,2.9,6.2,7,7.4,11.5c0,0.2,0.1,0.4,0.1,0.5c0,0,0,0,0,0.1h0c1-0.1,2-0.3,2.9-0.6c6.1-1.9,10.5-7.6,10.5-14.3
						C56.5,61.2,51.9,55.4,45.6,53.6z M35.1,59.3c-0.9,0.7-1.7,1.5-2.4,2.4c-0.7,0.9-1.2,1.9-1.5,3c-0.1,0.3-0.4,0.5-0.7,0.5
						c-0.1,0-0.1,0-0.2,0c-0.4-0.1-0.6-0.5-0.4-0.9c0.4-1.2,1-2.4,1.7-3.4c0.8-1,1.7-2,2.7-2.7c1-0.8,2.2-1.3,3.4-1.7
						c1.2-0.4,2.5-0.6,3.8-0.6c0.4,0,0.7,0.3,0.7,0.7s-0.3,0.7-0.7,0.7c-1.1,0-2.3,0.2-3.4,0.5C37.1,58.1,36,58.6,35.1,59.3z
						 M41.5,72.1c-2.2,0-4-1.8-4-4c0-2.2,1.8-4,4-4c0.3,0,0.6,0,0.9,0.1c1.8,0.4,3.1,2,3.1,3.9C45.5,70.3,43.7,72.1,41.5,72.1z"/>
				</g>
			</g>
		</g>
		<g>
			<g>
				<rect x="17" y="86.1" width="72.7" height="1.4"/>
			</g>
		</g>
	</g>
	<g id="Цвет_3_">
		<g>
			<g>
				<path d="M25.5,29.6c-2.2,0-4-1.8-4-4s1.8-4,4-4s4,1.8,4,4S27.7,29.6,25.5,29.6z M25.5,22.3c-1.8,0-3.3,1.5-3.3,3.3
					c0,1.8,1.5,3.3,3.3,3.3c1.8,0,3.3-1.5,3.3-3.3C28.7,23.7,27.2,22.3,25.5,22.3z"/>
			</g>
			<g>
				<path d="M17.3,29.6c-1.6,0-2.9-1.3-2.9-2.9s1.3-2.9,2.9-2.9s2.9,1.3,2.9,2.9S18.9,29.6,17.3,29.6z M17.3,24.6
					c-1.2,0-2.1,1-2.1,2.1s1,2.1,2.1,2.1s2.1-1,2.1-2.1S18.4,24.6,17.3,24.6z"/>
			</g>
		</g>
		<g>
			<g>
				<path d="M17.3,27.8c-0.6,0-1.1-0.5-1.1-1.1s0.5-1.1,1.1-1.1s1.1,0.5,1.1,1.1S17.9,27.8,17.3,27.8z M17.3,26.4
					c-0.2,0-0.3,0.1-0.3,0.3s0.1,0.3,0.3,0.3s0.3-0.1,0.3-0.3S17.4,26.4,17.3,26.4z"/>
			</g>
			<g>
				<path d="M25.5,27c-0.8,0-1.5-0.7-1.5-1.5c0-0.8,0.7-1.5,1.5-1.5c0.8,0,1.5,0.7,1.5,1.5C26.9,26.4,26.3,27,25.5,27z
					 M25.5,24.8c-0.4,0-0.7,0.3-0.7,0.7s0.3,0.7,0.7,0.7s0.7-0.3,0.7-0.7S25.8,24.8,25.5,24.8z"/>
			</g>
		</g>
		<g>
			<g>
				<g>
					<path d="M17.4,26.4c0,0-0.1,0-0.1,0c-0.2-0.1-0.3-0.3-0.3-0.5c0.2-0.6,0.4-1.2,0.7-1.8c1.3-2.4,3.8-3.9,6.5-4.1
						c0.2,0,0.4,0.2,0.4,0.4c0,0.2-0.2,0.4-0.4,0.4c-2.4,0.2-4.6,1.6-5.8,3.7c-0.3,0.5-0.5,1.1-0.6,1.6
						C17.8,26.3,17.6,26.4,17.4,26.4z"/>
				</g>
				<g>
					<path d="M25.2,24.9c-0.2,0-0.3-0.1-0.4-0.3l-1.3-5.4c-0.1-0.2,0.1-0.4,0.3-0.5c0.2-0.1,0.4,0.1,0.5,0.3l1.3,5.4
						C25.6,24.6,25.5,24.8,25.2,24.9C25.3,24.9,25.2,24.9,25.2,24.9z"/>
				</g>
			</g>
			<g>
				<path d="M23.9,19.5c-0.2,0-0.4-0.2-0.4-0.4c0-0.2,0.2-0.4,0.4-0.4l0,0c0.7,0,1.1-0.2,1.2-0.3
					c-0.2-0.1-0.7-0.3-1.5-0.3c-0.3,0-0.6,0-0.9,0.1c-0.1,0-0.2,0-0.2,0.1c-0.2,0.1-0.4,0-0.5-0.2c-0.1-0.2,0-0.4,0.2-0.5
					c0.1,0,0.2-0.1,0.3-0.1c0.3-0.1,0.7-0.1,1.1-0.1c1.1,0,2.3,0.3,2.3,1.1C26,19.1,24.9,19.4,23.9,19.5C24,19.5,24,19.5,23.9,19.5
					L23.9,19.5C23.9,19.5,23.9,19.5,23.9,19.5z"/>
			</g>
			<g>
				<g>
					<path d="M19.1,23.3c-0.1,0-0.3-0.1-0.3-0.2l-1.1-1.7c-0.1-0.2-0.1-0.4,0.1-0.5c0.2-0.1,0.4-0.1,0.5,0.1l1.1,1.7
						c0.1,0.2,0.1,0.4-0.1,0.5C19.3,23.3,19.2,23.3,19.1,23.3z"/>
				</g>
				<g>
					<path d="M18.8,21.6h-1.5c-0.2,0-0.4-0.2-0.4-0.4s0.2-0.4,0.4-0.4h1.5c0.2,0,0.4,0.2,0.4,0.4S19,21.6,18.8,21.6z"/>
				</g>
			</g>
		</g>
	</g>
</g>
</svg>
