
<svg version="1.1" id="Слой_1" xmlns="http://www.w3.org/2000/svg" xmlns:xlink="http://www.w3.org/1999/xlink" x="0px" y="0px"
	 viewBox="0 0 100 100" style="enable-background:new 0 0 100 100;" xml:space="preserve">
<style type="text/css">
	.st1{fill:#FFFFFF;}
</style>
			<path d="M84.8,26.3v47.9c0,0.5-0.2,1.1-0.7,1.4C83.8,75.8,83.4,76,83,76c-0.1,0-0.2,0-0.4,0l-1.4-0.3
				c0-0.1-0.1-0.3-0.1-0.4c-0.3-1.3-0.8-2.5-1.4-3.6v-6h-1.4V53H56.6V35.2l27.3-8.5C84.2,26.6,84.5,26.5,84.8,26.3z"/>
			<path d="M42,34.9l-24.6-4.9c-0.3-0.1-0.6,0-0.8,0l-0.1,0c0,0,0,0,0,0c0,0-0.1,0-0.1,0c-0.1,0-0.2,0.1-0.3,0.2
				c0,0-0.1,0-0.1,0.1c-0.1,0-0.1,0.1-0.2,0.1c0,0,0,0,0,0c0,0,0,0,0,0c-0.1,0.1-0.1,0.1-0.1,0.2c0,0.1-0.1,0.1-0.1,0.2
				c0,0,0,0.1-0.1,0.1c0,0.1-0.1,0.1-0.1,0.2c0,0,0,0.1,0,0.1c0,0,0,0.1,0,0.1c0,0.1,0,0.2,0,0.3c0,0,0,0,0,0.1c0,0,0,0.1,0,0.1
				v50.4c0,0.9,0.6,1.6,1.5,1.8l24.6,4.9c0.1,0,0.2,0,0.4,0c0.4,0,0.8-0.1,1.2-0.4c0.4-0.3,0.7-0.9,0.7-1.4V36.6
				C43.4,35.8,42.8,35,42,34.9z M39.8,84.8l-3.4-0.7l-1.3-0.3l-3-0.6L30.8,83l-3-0.6l-1.3-0.3l-3-0.6l-1.3-0.3l-3.4-0.7V33.9
				l3.4,0.7l1.3,0.3v0l3,0.6l0.6,0.1l0.6,0.1l3,0.6l1.3,0.3l3,0.6l0.6,0.1l0.6,0.1l3.4,0.7V84.8z"/>
			<path d="M84.8,23.8L84.8,23.8c0,0.8-0.5,1.5-1.3,1.7l-26.9,8.4L43.4,38l-1.3,0.4c-0.2,0.1-0.4,0.1-0.5,0.1
				c-0.1,0-0.2,0-0.4,0l-1.5-0.3l-3.4-0.7l-0.6-0.1l-0.6-0.1l-3-0.6l-1.3-0.3l-3-0.6v0l-0.6-0.1l-0.6-0.1l-3-0.6l-1.3-0.3l-3.4-0.7
				L17,33.6l-0.4-0.1c-0.6-0.1-1.1-0.6-1.3-1.1c-0.1-0.2-0.1-0.4-0.1-0.5c0,0,0-0.1,0-0.1c0,0,0-0.1,0-0.1c0,0,0,0,0-0.1
				c0-0.1,0-0.2,0-0.3c0,0,0-0.1,0-0.1c0,0,0-0.1,0-0.1c0-0.1,0-0.1,0.1-0.2c0,0,0-0.1,0.1-0.1c0-0.1,0.1-0.1,0.1-0.2
				c0-0.1,0.1-0.1,0.1-0.2c0,0,0,0,0,0c0,0,0,0,0,0c0.1-0.1,0.1-0.1,0.2-0.1c0,0,0.1,0,0.1-0.1c0.1-0.1,0.2-0.1,0.3-0.2
				c0,0,0.1,0,0.1,0c0,0,0,0,0,0l0.1,0l41.2-12.8l0.1,0c0,0,0,0,0,0c0,0,0.1,0,0.1,0c0,0,0,0,0.1,0c0,0,0.1,0,0.1,0
				c0.2,0,0.4,0,0.6,0L83.3,22c0.1,0,0.1,0,0.2,0c0,0,0.1,0,0.1,0.1c0,0,0.1,0,0.1,0.1c0,0,0.1,0,0.1,0.1c0,0,0,0,0,0
				c0,0,0.1,0.1,0.1,0.1c0,0,0.1,0.1,0.1,0.1c0,0,0.1,0.1,0.1,0.1c0,0,0,0,0.1,0.1c0,0,0,0,0,0c0,0,0.1,0.1,0.1,0.1c0,0,0,0,0,0
				c0,0,0,0,0,0.1c0,0,0,0.1,0.1,0.1c0,0,0,0.1,0.1,0.1c0,0,0,0.1,0,0.1c0,0,0,0,0,0c0,0,0,0.1,0,0.1c0,0,0,0,0,0c0,0,0,0.1,0,0.1
				c0,0,0,0,0,0.1c0,0,0,0.1,0,0.1c0,0,0,0.1,0,0.1c0,0,0,0,0,0C84.8,23.7,84.8,23.7,84.8,23.8L84.8,23.8
				C84.8,23.7,84.8,23.8,84.8,23.8z"/>
		<path d="M80.1,77.8h-4.2c0-1.2-0.3-2.3-0.8-3.2c-1.1-2.1-3.4-3.5-5.9-3.5H57.7c-3.7,0-6.7,3-6.7,6.8h-4.2
			c0-2.5,0.9-4.9,2.3-6.8h-0.7v-4.2h29.9V71h-0.7c1,1.3,1.7,2.7,2.1,4.4c0,0,0,0.1,0,0.1C80,76.2,80.1,77,80.1,77.8z"/>

			<polygon points="23.6,36.1 23.6,80.3 22.3,80 22.3,35.9 			"/>
			<polygon points="27.8,37 27.8,81.1 26.6,80.9 26.6,36.7 			"/>
			<polygon points="32.1,37.9 32.1,82 30.8,81.7 30.8,37.6 			"/>
			<polygon points="36.4,38.7 36.4,82.9 35.1,82.6 35.1,38.5 			"/>

		<path d="M77,58.4v-4.2H49.8v4.2h2.7v2.2h-2.7v4.2H77v-4.2h-2.7v-2.2H77z M72.9,60.6H54v-2.2h18.9V60.6z"/>

</svg>
