<?xml version="1.0" encoding="utf-8"?>
<!-- Generator: Adobe Illustrator 21.0.0, SVG Export Plug-In . SVG Version: 6.00 Build 0)  -->
<svg version="1.1" id="Слой_1" xmlns="http://www.w3.org/2000/svg" xmlns:xlink="http://www.w3.org/1999/xlink" x="0px" y="0px"
	 viewBox="0 0 100 100" style="enable-background:new 0 0 100 100;" xml:space="preserve">
<g id="_x32_">
	<g>
		<rect x="48.9" y="65.1" width="1.1" height="7.7"/>
		<rect x="30.6" y="66.6" transform="matrix(0.6593 -0.7518 0.7518 0.6593 -38.5179 49.1945)" width="8.8" height="1.1"/>
		<rect x="63.4" y="62.7" transform="matrix(0.7518 -0.6594 0.6594 0.7518 -28.3924 58.7843)" width="1.1" height="8.8"/>
	</g>
	<g>
		<g>
			<path d="M70.8,32.6c-5.7-2.2-13.3-3.4-21.4-3.4s-15.6,1.2-21.4,3.4c-5.9,2.3-9.1,5.3-9.1,8.7V47c0,3.3,3.2,6.4,9.1,8.7
				c5.7,2.2,13.3,3.4,21.4,3.4c8.1,0,15.6-1.2,21.4-3.4c5.9-2.3,9.1-5.3,9.1-8.7v-5.7C79.9,37.9,76.7,34.9,70.8,32.6z M70.4,54.6
				c-5.6,2.2-13,3.3-21,3.3c-7.9,0-15.4-1.2-21-3.3c-5.4-2.1-8.4-4.9-8.4-7.7c0-0.9,0.3-1.7,0.8-2.6c1.5-2.3,5.2-4.5,10.2-6
				c5.3-1.6,11.6-2.4,18.4-2.4c6.7,0,13.1,0.8,18.4,2.4c5,1.5,8.7,3.7,10.2,6c0.6,0.8,0.8,1.7,0.8,2.6
				C78.9,49.8,75.8,52.6,70.4,54.6z"/>
			<path d="M49.5,49.8c-4.1,0-8.2-1-8.2-2.8s4.1-2.8,8.2-2.8s8.2,1,8.2,2.8S53.5,49.8,49.5,49.8z M49.5,45.2c-4.6,0-7.1,1.2-7.1,1.8
				s2.5,1.8,7.1,1.8s7.1-1.2,7.1-1.8S54.1,45.2,49.5,45.2z"/>
		</g>
		<path d="M49.5,55.2c-10.5,0-21.8-2.6-21.8-8.3s11.3-8.3,21.8-8.3s21.8,2.6,21.8,8.3S59.9,55.2,49.5,55.2z M49.5,42.5
			c-5.1,0-9.9,0.6-13.5,1.8c-3.7,1.2-4.5,2.4-4.5,2.7c0,0.3,0.8,1.5,4.5,2.7c3.6,1.1,8.4,1.8,13.5,1.8s9.9-0.6,13.5-1.8
			c3.7-1.2,4.5-2.4,4.5-2.7c0-0.3-0.8-1.5-4.5-2.7C59.4,43.1,54.6,42.5,49.5,42.5z"/>
	</g>
</g>
</svg>
